<?xml version="1.0" standalone="no"?>
<!DOCTYPE svg PUBLIC "-//W3C//DTD SVG 20010904//EN"
 "http://www.w3.org/TR/2001/REC-SVG-20010904/DTD/svg10.dtd">
<svg version="1.0" xmlns="http://www.w3.org/2000/svg"
 width="1024.000000pt" height="1536.000000pt" viewBox="0 0 1024.000000 1536.000000"
 preserveAspectRatio="xMidYMid meet">

<g transform="translate(0.000000,1536.000000) scale(0.100000,-0.100000)"
fill="#000000" stroke="none">
<path d="M5285 13840 c-335 -4 -989 -8 -1453 -9 -509 0 -881 -5 -940 -11 -431
-47 -764 -294 -907 -674 -54 -144 -64 -248 -66 -736 l-2 -444 -23 -19 -24 -18
0 -273 c0 -252 1 -274 18 -289 10 -10 24 -17 30 -17 9 0 12 -43 12 -153 0
-141 -2 -155 -20 -172 -19 -18 -20 -31 -20 -456 0 -384 2 -439 16 -453 8 -9
22 -16 30 -16 11 0 14 -21 14 -104 0 -105 0 -105 -27 -118 l-28 -13 -3 -443
-2 -443 30 -17 30 -17 0 -3252 c0 -3551 -3 -3369 56 -3550 32 -97 102 -239
159 -318 55 -78 192 -209 275 -263 154 -102 359 -179 510 -193 139 -12 4254
-11 4365 1 254 29 485 146 685 349 143 145 209 263 268 478 l27 98 3 3495 2
3495 30 17 30 17 -2 713 -3 713 -22 10 -22 9 -3 1096 -4 1095 -27 100 c-48
172 -134 333 -243 454 -115 128 -340 257 -534 308 l-105 27 -750 1 c-412 1
-1024 -1 -1360 -5z m2100 -367 c96 -27 247 -100 295 -143 35 -30 34 -30 -15 3
-112 77 -221 120 -365 143 -84 14 -307 14 -1980 7 -1037 -4 -1757 -10 -1600
-13 246 -5 304 -8 261 -14 -5 0 -13 -5 -18 -10 -5 -5 -3 -6 5 -2 6 4 12 2 12
-3 0 -14 -46 -14 -72 0 -14 8 -18 8 -14 0 5 -7 -29 -11 -106 -14 -62 -1 445
-5 1127 -7 l1240 -5 -1575 -5 -1575 -5 -80 -23 c-145 -40 -238 -94 -340 -196
-103 -102 -151 -183 -188 -313 -21 -78 -22 -82 -27 -1213 -3 -624 -6 -2347 -8
-3829 -1 -1482 -4 -2697 -7 -2699 -3 -3 -5 694 -5 1548 0 854 -3 1551 -6 1548
-3 -4 -6 -54 -6 -113 0 -88 -2 -106 -14 -101 -8 3 -14 1 -14 -4 0 -6 7 -10 15
-10 10 0 15 -10 15 -32 l-1 -33 -14 25 c-8 14 -14 21 -14 15 0 -5 6 -21 14
-35 16 -28 20 -140 6 -140 -5 0 -11 10 -13 22 -3 22 -28 39 -28 18 0 -6 4 -9
9 -5 6 3 9 -3 8 -13 -1 -23 -26 -25 -29 -3 -9 86 -14 -339 -16 -1589 -2 -811
-6 -1477 -8 -1479 -2 -3 -3 1815 -2 4040 l3 4044 22 76 c78 275 290 481 570
553 34 9 108 20 165 25 57 5 1046 8 2198 7 l2095 -1 80 -22z m-3340 -13 c-27
-12 -35 -12 -35 0 0 6 12 10 28 9 24 0 25 -1 7 -9z m69 2 c2 -4 -4 -9 -15 -9
-10 -1 -19 2 -19 8 0 11 27 12 34 1z m59 1 c-7 -2 -21 -2 -30 0 -10 3 -4 5 12
5 17 0 24 -2 18 -5z m-120 -30 c-13 -2 -33 -2 -45 0 -13 2 -3 4 22 4 25 0 35
-2 23 -4z m2144 -19 c-3 -3 -12 -4 -19 -1 -8 3 -5 6 6 6 11 1 17 -2 13 -5z
m-2570 -116 c-3 -8 -6 -5 -6 6 -1 11 2 17 5 13 3 -3 4 -12 1 -19z m3663 -18
c30 -7 93 -30 139 -52 155 -74 269 -217 318 -398 17 -62 18 -331 18 -5225 0
-4918 -1 -5164 -18 -5236 -25 -107 -75 -205 -141 -276 -74 -80 -150 -129 -256
-167 l-85 -31 -2057 -3 c-1132 -1 -2058 0 -2058 2 0 2 39 134 86 292 82 275
148 501 284 969 34 116 83 282 110 370 27 88 112 378 190 645 78 267 188 643
245 835 57 193 134 456 170 585 37 129 109 377 160 550 51 173 143 491 205
705 61 215 135 471 165 570 29 99 128 439 220 755 92 316 207 712 257 880 114
389 456 1581 633 2210 143 509 242 854 377 1307 l81 272 48 16 c70 24 128 85
180 190 41 82 44 94 44 166 l0 78 125 4 c199 6 500 -1 560 -13z m480 -25 c19
-19 32 -35 29 -35 -3 0 -20 16 -39 35 -19 19 -32 35 -29 35 3 0 20 -16 39 -35z
m-1962 -84 c-8 -12 -18 -18 -21 -14 -4 3 0 15 10 25 21 24 29 15 11 -11z m67
-60 c-3 -6 -11 -11 -17 -11 -6 0 -6 6 2 15 14 17 26 13 15 -4z m-3943 -1373
c-4 -305 -8 -333 -10 -85 -1 136 1 247 6 247 4 0 6 -73 4 -162z m21 -763 c-3
-9 -8 -14 -10 -11 -3 3 -2 9 2 15 9 16 15 13 8 -4z m-6 -377 c-1 -68 -3 -15
-3 117 0 132 2 187 3 123 2 -64 2 -172 0 -240z m-10 -220 c-3 -8 -6 -5 -6 6
-1 11 2 17 5 13 3 -3 4 -12 1 -19z m5 -140 c2 -37 0 -64 -4 -62 -4 3 -7 40 -7
82 1 87 6 79 11 -20z m8 -429 c0 -6 -4 -7 -10 -4 -5 3 -10 11 -10 16 0 6 5 7
10 4 6 -3 10 -11 10 -16z m-3 -356 c-1 -65 -3 -14 -3 112 0 127 2 180 3 118 2
-62 2 -165 0 -230z m-5 -341 c2 -50 0 -92 -4 -92 -5 0 -7 62 -6 138 2 139 5
122 10 -46z m358 -1337 c0 6 9 11 20 11 11 0 19 -4 17 -9 -1 -5 -6 -8 -11 -7
-5 1 -13 -4 -17 -12 -7 -11 -11 -10 -19 2 -5 8 -10 20 -10 25 0 6 5 3 10 -5 5
-8 10 -10 10 -5z m-6 -60 c-4 -8 -8 -15 -10 -15 -2 0 -4 7 -4 15 0 8 4 15 10
15 5 0 7 -7 4 -15z m-7 -67 c-3 -8 -6 -5 -6 6 -1 11 2 17 5 13 3 -3 4 -12 1
-19z m70 -2565 c-3 -10 -5 -4 -5 12 0 17 2 24 5 18 2 -7 2 -21 0 -30z m0 -55
c-3 -7 -5 -2 -5 12 0 14 2 19 5 13 2 -7 2 -19 0 -25z m0 -60 c-3 -7 -5 -2 -5
12 0 14 2 19 5 13 2 -7 2 -19 0 -25z m0 -155 c-2 -16 -4 -5 -4 22 0 28 2 40 4
28 2 -13 2 -35 0 -50z m-100 -225 c-2 -29 -3 -8 -3 47 0 55 1 79 3 53 2 -26 2
-71 0 -100z m0 -155 c-3 -10 -5 -2 -5 17 0 19 2 27 5 18 2 -10 2 -26 0 -35z
m0 -90 c-2 -16 -4 -5 -4 22 0 28 2 40 4 28 2 -13 2 -35 0 -50z"/>
<path d="M2341 8984 c0 -11 3 -14 6 -6 3 7 2 16 -1 19 -3 4 -6 -2 -5 -13z"/>
<path d="M2343 8765 c0 -22 2 -30 4 -17 2 12 2 30 0 40 -3 9 -5 -1 -4 -23z"/>
<path d="M2342 8690 c0 -19 2 -27 5 -17 2 9 2 25 0 35 -3 9 -5 1 -5 -18z"/>
<path d="M2341 8614 c0 -11 3 -14 6 -6 3 7 2 16 -1 19 -3 4 -6 -2 -5 -13z"/>
<path d="M2343 8535 c0 -22 2 -30 4 -17 2 12 2 30 0 40 -3 9 -5 -1 -4 -23z"/>
<path d="M2343 8445 c0 -22 2 -30 4 -17 2 12 2 30 0 40 -3 9 -5 -1 -4 -23z"/>
<path d="M2343 8320 c0 -47 2 -66 4 -42 2 23 2 61 0 85 -2 23 -4 4 -4 -43z"/>
<path d="M2305 8159 c-4 -6 -5 -12 -2 -15 2 -3 7 2 10 11 7 17 1 20 -8 4z"/>
<path d="M2272 8000 c0 -14 2 -19 5 -12 2 6 2 18 0 25 -3 6 -5 1 -5 -13z"/>
<path d="M2270 7943 c0 -14 1 -24 3 -22 1 2 8 11 15 20 10 14 10 18 -3 23 -11
4 -15 -1 -15 -21z"/>
<path d="M2272 7870 c0 -19 2 -27 5 -17 2 9 2 25 0 35 -3 9 -5 1 -5 -18z"/>
</g>
</svg>
